<?xml version="1.0" encoding="utf-8"?>
<!-- Generator: Adobe Illustrator 25.4.1, SVG Export Plug-In . SVG Version: 6.00 Build 0)  -->
<svg version="1.1" id="Capa_1" xmlns="http://www.w3.org/2000/svg" xmlns:xlink="http://www.w3.org/1999/xlink" x="0px" y="0px"
	 viewBox="0 0 1080 1080" style="enable-background:new 0 0 1080 1080;" xml:space="preserve">
<style type="text/css">
	.st0{fill:#37246C;}
	.st1{fill:#7637E0;}
	.st2{fill:#FFFFFF;}
	.st3{fill:#6745A4;}
	.st4{fill:url(#SVGID_1_);}
	.st5{fill:url(#SVGID_00000181063702989424063350000010459659105139626117_);}
	.st6{fill:url(#SVGID_00000169515585884650813740000005964373027834454163_);}
	.st7{fill:url(#SVGID_00000147204248020651974820000014121798645515398021_);}
	.st8{fill:#6A4CAD;}
	.st9{fill:url(#SVGID_00000005231408228373938010000015830969764794001310_);}
	.st10{fill:url(#SVGID_00000085943819075806078580000012633315604760927929_);}
	.st11{fill:url(#SVGID_00000168838352564265055530000001338276436141741484_);}
	.st12{fill:url(#SVGID_00000040558982104371462370000008420918098884463241_);}
	.st13{fill:#526FEF;}
	.st14{fill:url(#SVGID_00000089561126998773551290000017695615764025006986_);}
	.st15{fill:url(#SVGID_00000009552039066266389810000008350361418986999739_);}
	.st16{fill:url(#SVGID_00000061432072199786250320000008274735477894036642_);}
	.st17{fill:url(#SVGID_00000143585959379907129030000007509109096406760858_);}
</style>
<g>
	<g>
		<path d="M506.5,496c-0.3,0-0.5-0.1-0.8-0.2c-0.7-0.4-0.9-1.4-0.5-2.1L571,387.4c1.3-2.3,1.7-5.1,1-7.7c-0.7-2.6-2.4-4.8-4.8-6.2
			s-5.1-1.7-7.8-1c-2.6,0.7-4.8,2.4-6.2,4.8L496,471.4c-1.8,3-4.6,5.2-8,6.1c-3.4,0.9-7,0.4-10-1.3c-3.1-1.8-5.3-4.6-6.2-8
			c-0.9-3.4-0.4-7,1.3-10c0.4-0.7,1.3-1,2-0.5c0.7,0.4,1,1.3,0.5,2c-1.4,2.4-1.7,5.1-1,7.8c0.7,2.6,2.4,4.8,4.8,6.2
			c2.4,1.4,5.1,1.7,7.8,1c2.6-0.7,4.8-2.4,6.2-4.8l57.2-94.2c1.8-3,4.6-5.2,8-6.1c3.4-0.9,7-0.4,10,1.3c3.1,1.8,5.3,4.6,6.2,8
			c0.9,3.4,0.4,7-1.3,10l-65.8,106.3C507.5,495.7,507,496,506.5,496z"/>
	</g>
	<g>
		<g>
			<path d="M540,578.1c-59.6,0-108.1-48.5-108.1-108.1v-65.7c0-59.6,48.5-108.1,108.1-108.1c59.6,0,108.1,48.5,108.1,108.1V470
				C648.1,529.6,599.6,578.1,540,578.1z M540,306.2c-54.1,0-98.1,44-98.1,98.1V470c0,54.1,44,98.1,98.1,98.1s98.1-44,98.1-98.1
				v-65.7C638.1,350.2,594.1,306.2,540,306.2z"/>
		</g>
		<g>
			<g>
				<path d="M508.1,528.1c-2.3,0-4.6-0.6-6.6-1.8c-3.1-1.8-5.3-4.6-6.2-8c-0.9-3.4-0.4-7,1.3-10c0.4-0.7,1.3-1,2-0.5
					c0.7,0.4,1,1.3,0.5,2c-1.4,2.4-1.7,5.1-1,7.8c0.7,2.6,2.4,4.8,4.8,6.2c2.4,1.4,5.1,1.7,7.8,1c2.6-0.7,4.8-2.4,6.2-4.8l60.1-99.6
					c3.6-6.3,11.7-8.5,18.1-4.8c3.1,1.8,5.3,4.6,6.2,8c0.9,3.4,0.4,7-1.3,10l-17.2,29.9c-0.4,0.7-1.3,1-2,0.6c-0.7-0.4-1-1.3-0.6-2
					l17.2-29.9c1.4-2.4,1.7-5.1,1-7.8c-0.7-2.6-2.4-4.8-4.8-6.2c-4.9-2.8-11.2-1.1-14,3.7l-60.1,99.6c-1.8,3-4.6,5.2-8,6.1
					C510.4,528,509.2,528.1,508.1,528.1z"/>
			</g>
			<g>
				<path d="M540,558.6c-50.2,0-91-40.8-91-91v-25.4c0-0.4,0.2-0.8,0.5-1.1c0.3-0.3,0.7-0.4,1.1-0.4c0.3,0,7.6,0.3,11.4-6.2
					l23.6-40.9c3.6-6.3,11.8-8.5,18.1-4.8c6.3,3.6,8.5,11.8,4.8,18.1l-23.9,38.7c-0.4,0.7-1.4,0.9-2.1,0.5c-0.7-0.4-0.9-1.4-0.5-2.1
					l23.9-38.6c2.8-4.8,1.1-11.1-3.8-13.9c-4.9-2.8-11.2-1.1-14,3.7L464.6,436c-3.6,6.2-9.7,7.4-12.5,7.7v23.9c0,48.5,39.5,88,88,88
					s88-39.5,88-88v-24.2c-5.8-1.9-8.3,3-8.6,3.6c0,0,0,0.1-0.1,0.1l-26.7,43.6c-3.6,6.3-11.7,8.5-18.1,4.8c-3.1-1.8-5.3-4.6-6.2-8
					c-0.9-3.4-0.4-7,1.3-10c0.4-0.7,1.3-1,2-0.5c0.7,0.4,1,1.3,0.5,2c-1.4,2.4-1.7,5.1-1,7.8c0.7,2.6,2.4,4.8,4.8,6.2
					c4.9,2.8,11.2,1.1,14-3.7l26.7-43.6c1.5-3,6.1-7.7,13.4-4.6c0.5,0.2,0.9,0.8,0.9,1.4v25.2C631,517.7,590.2,558.6,540,558.6z"/>
			</g>
			<g>
				<path d="M581.1,473.4c-2.2,0-4.5-0.6-6.6-1.8c-3.1-1.8-5.3-4.6-6.2-8c-0.9-3.4-0.4-7,1.3-10l19.9-30.5c0.5-0.7,1.4-0.9,2.1-0.4
					c0.7,0.5,0.9,1.4,0.4,2.1l-19.9,30.4c-1.3,2.3-1.7,5.1-1,7.7c0.7,2.6,2.4,4.8,4.8,6.2c2.4,1.4,5.1,1.7,7.8,1
					c2.6-0.7,4.8-2.4,6.2-4.8l27.3-42.6c1.3-2.8,5.1-7.2,10.7-6.5v-9.6c0-48.5-39.5-88-88-88s-88,39.5-88,88v8.8
					c5.2,1.4,8.9-4.6,9-4.6l24.6-41.3c1.8-3,4.6-5.2,8-6.1c3.4-0.9,7-0.4,10,1.3c6.3,3.6,8.5,11.8,4.8,18.1c-0.4,0.7-1.3,1-2,0.5
					c-0.7-0.4-1-1.3-0.5-2c2.8-4.9,1.1-11.2-3.7-14c-4.9-2.8-11.2-1.1-14,3.7l-24.6,41.4c-1.9,3.1-7.2,8.2-13.6,5.5l-0.9-0.4v-10.9
					c0-50.2,40.8-91,91-91s91,40.8,91,91v13.5l-2-0.6c-5.9-1.9-8.9,4.3-9.1,4.6l-0.1,0.2l-27.3,42.6
					C590.1,471.1,585.7,473.4,581.1,473.4z"/>
			</g>
			<g>
				<path d="M508.1,505.2c-2.3,0-4.6-0.6-6.6-1.8c-6.3-3.6-8.5-11.8-4.8-18.1l64.8-106.3c0.4-0.7,1.4-0.9,2.1-0.5
					c0.7,0.4,0.9,1.4,0.5,2.1l-64.8,106.3c-1.3,2.3-1.7,5.1-1,7.7c0.7,2.6,2.4,4.8,4.8,6.2c2.4,1.4,5.1,1.7,7.8,1
					c2.6-0.7,4.8-2.4,6.2-4.8l61.2-99.7c5.2-8.3,13.3-8.5,18.7-6c2.7,1.2,4.6,3.5,5.6,6.6c1.3,4,0.7,9-1.4,12.7
					c-0.4,0.7-1.3,1-2,0.5c-0.7-0.4-1-1.3-0.5-2c1.8-3,2.2-7.1,1.2-10.3c-0.5-1.6-1.6-3.7-4-4.7c-4.5-2-10.7-1.8-14.9,4.9
					l-61.2,99.7c-1.7,3-4.6,5.2-8,6.1C510.4,505.1,509.2,505.2,508.1,505.2z"/>
			</g>
		</g>
	</g>
	<g>
		<path d="M484.5,453.6c-2.2,0-4.5-0.6-6.6-1.8c-3.1-1.8-5.3-4.6-6.2-8c-0.9-3.4-0.4-7,1.3-10l24-37.4c0.4-0.7,1.4-0.9,2.1-0.5
			c0.7,0.4,0.9,1.4,0.5,2.1l-24,37.3c-1.3,2.3-1.7,5.1-1,7.7c0.7,2.6,2.4,4.8,4.8,6.2c4.9,2.8,11.2,1.1,14-3.7l57.1-92.8
			c1.7-3,4.6-5.2,8-6.1c3.4-0.9,7-0.4,10,1.3c3.1,1.8,5.3,4.6,6.2,8c0.9,3.4,0.4,7-1.3,10c-0.4,0.7-1.3,1-2,0.5
			c-0.7-0.4-1-1.3-0.5-2c1.4-2.4,1.7-5.1,1-7.8c-0.7-2.6-2.4-4.8-4.8-6.2c-4.9-2.8-11.2-1.1-14,3.7l-57,92.8
			C493.6,451.3,489.1,453.6,484.5,453.6z"/>
	</g>
	<g>
		<circle cx="451.1" cy="430.1" r="2.4"/>
	</g>
	<g>
		<circle cx="628" cy="430.1" r="2.4"/>
	</g>
</g>
<g>
	<g>
		<path d="M259.8,715.9h-3.7c-0.3-0.6-0.5-3.2-0.6-8.2c-2,3.5-6.5,8.8-18.4,8.8c-16.4,0-24.8-11.3-24.8-25.9
			c0-15.4,9-26.9,25.7-26.9c12.3,0,20.4,5.8,22.2,15.3h-4.4c-2.4-7.3-8.1-11.6-18-11.6c-14.3,0-20.8,10-20.8,23
			c0,11.8,6.3,22.4,20.2,22.4c14.3,0,18.2-8.4,18.2-19.8v-0.6h-18.4v-3.7h22.6V715.9z"/>
		<path d="M288,691.9v24h-4.5v-51.5H304c11.2,0,17.2,5.4,17.2,13.5c0,6.5-4.3,10.8-10.7,12.1c5.9,1.2,9.8,4.7,9.8,13.5v2
			c0,3.6-0.3,8.5,0.7,10.4h-4.5c-1.1-2.2-0.8-6.3-0.8-10.7v-1.3c0-8.5-2.8-12-13.7-12H288z M288,688.2h13.8c10,0,14.7-3.4,14.7-10.1
			c0-6.3-4.6-9.9-13.4-9.9h-15V688.2z"/>
		<path d="M347.6,664.5v31.2c0,13.7,8.6,17.2,16.6,17.2c9.5,0,16.6-3.6,16.6-17.2v-31.2h4.5v31c0,16.1-9.4,21.1-21.3,21.1
			c-11.2,0-21-5.5-21-20.4v-31.6H347.6z"/>
		<path d="M410.3,664.5h20.4c10.4,0,17.6,5.2,17.6,14.3c0,9.3-7.1,14.7-18.2,14.7h-15.3v22.4h-4.5V664.5z M414.7,689.8h15.7
			c9.2,0,13-4.4,13-10.9c0-6.9-5-10.8-12.7-10.8h-16V689.8z"/>
		<path d="M517.4,689.8c0,14-8.3,26.8-25.9,26.8c-16,0-25.4-11.7-25.4-26.5c0-14.6,9-26.5,26-26.5
			C507.7,663.7,517.4,674.8,517.4,689.8z M470.9,690c0,11.8,7.2,23,20.9,23c14.7,0,20.9-10.9,20.9-23.1c0-12-7-22.5-20.8-22.5
			C477.3,667.4,470.9,678.4,470.9,690z"/>
		<path d="M569.1,664.5h19.9c10.9,0,16.8,5.2,16.8,12.7c0,6.1-4.1,10.1-8.8,11.3c4.1,1,10.8,4.6,10.8,12.7
			c0,10.3-8.6,14.9-18.5,14.9h-20.2V664.5z M587.5,686.6c9.9,0,13.6-3.3,13.6-9.3c0-5.1-3.9-9.2-11.9-9.2h-15.8v18.5H587.5z
			 M573.4,712.3h16c7.5,0,13.8-3.4,13.8-11c0-6.5-4.6-11-16.1-11h-13.7V712.3z"/>
		<path d="M663.2,690.6h-29.1v21.6H666l-0.7,3.7h-35.6v-51.5h34.9v3.7h-30.5V687h29.1V690.6z"/>
		<path d="M686.2,715.9v-51.5h6.5c8.9,12.4,29.7,41.1,33.3,46.7h0.1c-0.5-7.4-0.4-15-0.4-23.4v-23.3h4.5v51.5h-6
			c-8.5-11.9-29.6-41.8-33.7-47.5h-0.1c0.4,6.8,0.3,14.3,0.3,23.6v23.9H686.2z"/>
		<path d="M755.9,715.9v-51.5h6.5c8.9,12.4,29.7,41.1,33.3,46.7h0.1c-0.5-7.4-0.4-15-0.4-23.4v-23.3h4.5v51.5h-6
			c-8.5-11.9-29.6-41.8-33.7-47.5h-0.1c0.4,6.8,0.3,14.3,0.3,23.6v23.9H755.9z"/>
		<path d="M829.9,664.5v31.2c0,13.7,8.6,17.2,16.6,17.2c9.5,0,16.6-3.6,16.6-17.2v-31.2h4.5v31c0,16.1-9.4,21.1-21.3,21.1
			c-11.2,0-21-5.5-21-20.4v-31.6H829.9z"/>
	</g>
	<g>
		<path d="M159.5,774.3c1.1,4.5,4.4,7.1,10.6,7.1c6.8,0,9.5-3.1,9.5-6.7c0-3.8-1.9-6.1-10.1-8c-7.9-1.8-11.3-4.1-11.3-8.9
			c0-4.4,3.6-8.5,11.6-8.5c8.2,0,11.7,4.5,12.2,8.6h-3c-0.9-3.6-3.5-6.2-9.4-6.2c-5.4,0-8.3,2.3-8.3,6c0,3.7,2.5,5.1,9.4,6.7
			c10.5,2.4,12.1,6.1,12.1,10.2c0,4.9-4,9.2-12.7,9.2c-9.4,0-12.8-4.9-13.5-9.4H159.5z"/>
		<path d="M228.3,766.3c0,9.2-5.5,17.5-17,17.5c-10.5,0-16.7-7.6-16.7-17.3c0-9.5,5.9-17.3,17.1-17.3
			C221.9,749.3,228.3,756.5,228.3,766.3z M197.7,766.4c0,7.7,4.8,15,13.7,15c9.7,0,13.7-7.1,13.7-15.1c0-7.8-4.6-14.7-13.6-14.7
			C201.9,751.7,197.7,758.8,197.7,766.4z"/>
		<path d="M242.4,749.8h2.9V781h20.1l-0.5,2.4h-22.4V749.8z"/>
		<path d="M278.5,749.8v20.4c0,8.9,5.6,11.2,10.9,11.2c6.3,0,10.9-2.4,10.9-11.2v-20.4h2.9V770c0,10.5-6.2,13.8-14,13.8
			c-7.4,0-13.8-3.6-13.8-13.3v-20.6H278.5z"/>
		<path d="M347.6,774.4c-1.8,5.3-6.1,9.4-14.1,9.4c-10.7,0-16.4-7.7-16.4-17.1c0-9.1,5.6-17.3,16.5-17.3c8.1,0,12.8,4,14.1,9.6h-2.9
			c-1.7-4.4-4.9-7.2-11.3-7.2c-9.3,0-13.2,7.6-13.2,14.9c0,7.2,3.8,14.8,13.4,14.8c6.1,0,9.2-2.8,11.1-7H347.6z"/>
		<path d="M364.5,749.8v33.6h-2.9v-33.6H364.5z"/>
		<path d="M412.3,766.3c0,9.2-5.5,17.5-17,17.5c-10.5,0-16.7-7.6-16.7-17.3c0-9.5,5.9-17.3,17.1-17.3
			C405.9,749.3,412.3,756.5,412.3,766.3z M381.7,766.4c0,7.7,4.8,15,13.7,15c9.7,0,13.7-7.1,13.7-15.1c0-7.8-4.6-14.7-13.6-14.7
			C385.9,751.7,381.7,758.8,381.7,766.4z"/>
		<path d="M426.4,783.4v-33.6h4.3c5.8,8.1,19.5,26.8,21.9,30.5h0.1c-0.3-4.8-0.3-9.8-0.3-15.3v-15.2h2.9v33.6h-4
			c-5.6-7.8-19.5-27.3-22.1-31h-0.1c0.3,4.4,0.2,9.3,0.2,15.4v15.6H426.4z"/>
		<path d="M494.1,766.9H475V781h20.9l-0.4,2.4h-23.4v-33.6h22.9v2.4h-20v12.3h19.1V766.9z"/>
		<path d="M509.8,774.3c1.1,4.5,4.4,7.1,10.6,7.1c6.8,0,9.5-3.1,9.5-6.7c0-3.8-1.9-6.1-10.1-8c-7.9-1.8-11.3-4.1-11.3-8.9
			c0-4.4,3.6-8.5,11.6-8.5c8.2,0,11.7,4.5,12.2,8.6h-3c-0.9-3.6-3.5-6.2-9.4-6.2c-5.4,0-8.3,2.3-8.3,6c0,3.7,2.5,5.1,9.4,6.7
			c10.5,2.4,12.1,6.1,12.1,10.2c0,4.9-4,9.2-12.7,9.2c-9.4,0-12.8-4.9-13.5-9.4H509.8z"/>
		<path d="M569.4,749.8v33.6h-2.9v-33.6H569.4z"/>
		<path d="M586.3,783.4v-33.6h4.3c5.8,8.1,19.5,26.8,21.9,30.5h0.1c-0.3-4.8-0.3-9.8-0.3-15.3v-15.2h2.9v33.6h-4
			c-5.6-7.8-19.5-27.3-22.1-31H589c0.3,4.4,0.2,9.3,0.2,15.4v15.6H586.3z"/>
		<path d="M639.6,752.2H627v-2.4h28.1v2.4h-12.6v31.2h-2.9V752.2z"/>
		<path d="M688.5,766.9h-19.1V781h20.9l-0.4,2.4h-23.4v-33.6h22.9v2.4h-20v12.3h19.1V766.9z"/>
		<path d="M732.2,783.4h-2.4c-0.2-0.4-0.3-2.1-0.4-5.4c-1.3,2.3-4.3,5.8-12.1,5.8c-10.7,0-16.2-7.3-16.2-16.9
			c0-10,5.9-17.6,16.8-17.6c8.1,0,13.4,3.8,14.6,10h-2.9c-1.6-4.8-5.3-7.6-11.8-7.6c-9.4,0-13.6,6.5-13.6,15
			c0,7.7,4.1,14.6,13.3,14.6c9.4,0,12-5.5,12-12.9v-0.4h-12.1v-2.4h14.9V783.4z"/>
		<path d="M750.7,767.7v15.7h-2.9v-33.6h13.4c7.4,0,11.3,3.6,11.3,8.8c0,4.3-2.8,7.1-7,7.9c3.8,0.8,6.4,3.1,6.4,8.8v1.3
			c0,2.4-0.2,5.5,0.5,6.8h-2.9c-0.7-1.4-0.5-4.1-0.5-7v-0.9c0-5.5-1.8-7.8-9-7.8H750.7z M750.7,765.3h9c6.6,0,9.6-2.2,9.6-6.6
			c0-4.1-3-6.5-8.8-6.5h-9.8V765.3z"/>
		<path d="M791.8,771.7l-4.8,11.6h-2.9l13.7-33.6h3.4l14.3,33.6h-3.2l-4.9-11.6H791.8z M806.6,769.3c-4.2-10-6.3-14.8-7.1-17h-0.1
			c-0.9,2.5-3.3,8.5-6.7,17H806.6z"/>
		<path d="M828.1,749.8h2.9V781h20.1l-0.5,2.4h-22.4V749.8z"/>
		<path d="M884.7,766.9h-19.1V781h20.9l-0.4,2.4h-23.4v-33.6h22.9v2.4h-20v12.3h19.1V766.9z"/>
		<path d="M900.4,774.3c1.1,4.5,4.4,7.1,10.6,7.1c6.8,0,9.5-3.1,9.5-6.7c0-3.8-1.9-6.1-10.1-8c-7.9-1.8-11.3-4.1-11.3-8.9
			c0-4.4,3.6-8.5,11.6-8.5c8.2,0,11.7,4.5,12.2,8.6h-3c-0.9-3.6-3.5-6.2-9.4-6.2c-5.4,0-8.3,2.3-8.3,6c0,3.7,2.5,5.1,9.4,6.7
			c10.5,2.4,12.1,6.1,12.1,10.2c0,4.9-4,9.2-12.7,9.2c-9.4,0-12.8-4.9-13.5-9.4H900.4z"/>
	</g>
</g>
</svg>
