<svg width="440" height="574" viewBox="0 0 440 574" fill="none" xmlns="http://www.w3.org/2000/svg">
<path d="M151.9 406.4C151.4 406.4 150.8 406.3 150.3 405.9C148.9 405 148.4 403.1 149.3 401.7L282.9 186C285.6 181.3 286.4 175.7 284.9 170.3C283.5 164.9 280 160.5 275.2 157.7C270.4 154.9 264.8 154.2 259.4 155.6C254 157 249.6 160.5 246.8 165.3L130.6 356.7C127 362.9 121.3 367.3 114.3 369.2C107.4 371.1 100.1 370.1 93.9 366.5C87.7 362.9 83.2 357.1 81.4 350.2C79.5 343.3 80.5 336 84.1 329.8C84.9 328.3 86.8 327.8 88.3 328.7C89.8 329.5 90.3 331.4 89.4 332.9C86.6 337.7 85.9 343.3 87.3 348.7C88.7 354.1 92.2 358.5 97 361.3C101.8 364.1 107.4 364.8 112.8 363.4C118.2 362 122.6 358.5 125.4 353.7L241.6 162.4C245.2 156.2 250.9 151.8 257.9 149.9C264.8 148 272.1 149 278.3 152.6C284.5 156.2 289 162 290.8 168.9C292.7 175.8 291.7 183.1 288.1 189.3L154.5 405C154 405.9 153 406.4 151.9 406.4Z" fill="black"/>
<path d="M220 573.2C98.9 573.2 0.399994 474.7 0.399994 353.6V220.3C0.399994 99.1999 98.9 0.699951 220 0.699951C341.1 0.699951 439.6 99.1999 439.6 220.3V353.6C439.6 474.7 341.1 573.2 220 573.2ZM220 21.1C110.1 21.1 20.7 110.5 20.7 220.4V353.7C20.7 463.6 110.1 553 220 553C329.9 553 419.3 463.6 419.3 353.7V220.3C419.3 110.5 329.9 21.1 220 21.1Z" fill="black"/>
<path d="M155.2 471.7C150.5 471.7 145.9 470.5 141.8 468.1C135.6 464.5 131.1 458.7 129.3 451.8C127.4 444.9 128.4 437.6 132 431.4C132.8 429.9 134.7 429.4 136.2 430.3C137.7 431.1 138.2 433 137.3 434.5C134.5 439.3 133.8 444.9 135.2 450.3C136.6 455.7 140.1 460.1 144.9 462.9C149.7 465.7 155.3 466.4 160.7 465C166.1 463.6 170.5 460.1 173.3 455.3L295.3 253C302.7 240.2 319.1 235.8 332 243.2C338.2 246.8 342.7 252.6 344.5 259.5C346.4 266.4 345.4 273.7 341.8 279.9L306.9 340.7C306.1 342.2 304.2 342.7 302.7 341.8C301.2 341 300.7 339.1 301.6 337.6L336.5 276.8C339.3 272 340 266.4 338.6 261C337.2 255.6 333.7 251.2 328.9 248.4C319 242.7 306.2 246.1 300.5 256L178.5 458.3C174.9 464.5 169.1 468.9 162.2 470.8C159.9 471.4 157.5 471.7 155.2 471.7Z" fill="black"/>
<path d="M220 533.5C118.2 533.5 35.3 450.6 35.3 348.8V297.2C35.3 296.4 35.6 295.6 36.3 295C36.9 294.4 37.7 294.1 38.6 294.2C39.2 294.2 54 294.9 61.7 281.6L109.7 198.5C117.1 185.7 133.6 181.3 146.4 188.7C159.2 196.1 163.6 212.6 156.2 225.4L107.5 304C106.6 305.4 104.7 305.9 103.3 305C101.9 304.1 101.4 302.2 102.3 300.8L150.9 222.3C156.6 212.5 153.2 199.7 143.2 194C133.3 188.3 120.5 191.7 114.8 201.6L66.8 284.7C59.5 297.3 47.2 299.8 41.3 300.3V348.9C41.3 447.4 121.4 527.5 219.9 527.5C318.4 527.5 398.5 447.4 398.5 348.9V299.9C386.8 296 381.6 305.9 381 307.1C381 307.2 380.9 307.3 380.9 307.4L326.7 395.9C319.3 408.7 302.9 413.1 290 405.7C283.8 402.1 279.3 396.3 277.5 389.4C275.6 382.5 276.6 375.2 280.2 369C281 367.5 282.9 367 284.4 367.9C285.9 368.7 286.4 370.6 285.5 372.1C282.7 376.9 282 382.5 283.4 387.9C284.8 393.3 288.3 397.7 293.1 400.5C303 406.2 315.8 402.8 321.5 392.9L375.7 304.5C378.7 298.4 388.1 288.8 402.9 295.2C404 295.7 404.7 296.8 404.7 298V349.1C404.7 450.7 321.8 533.5 220 533.5Z" fill="black"/>
<path d="M303.5 360.7C298.9 360.7 294.3 359.5 290.1 357.1C283.9 353.5 279.4 347.7 277.6 340.8C275.7 333.9 276.7 326.6 280.3 320.4L320.8 258.4C321.7 257 323.6 256.6 325 257.5C326.4 258.4 326.8 260.3 325.9 261.7L285.5 323.5C282.8 328.2 282.1 333.8 283.5 339.1C284.9 344.5 288.4 348.9 293.2 351.7C298 354.5 303.6 355.2 309 353.8C314.4 352.4 318.8 348.9 321.6 344.1L377 257.7C379.7 252.1 387.4 243.1 398.7 244.5V225.1C398.7 126.6 318.6 46.5001 220.1 46.5001C121.6 46.5001 41.5 126.6 41.5 225.1V243C52 245.7 59.6 233.7 59.7 233.6L109.7 149.7C113.3 143.5 119.1 139.1 126 137.2C132.9 135.3 140.2 136.3 146.4 139.9C159.2 147.3 163.6 163.8 156.2 176.6C155.4 178.1 153.5 178.6 152 177.7C150.5 176.9 150 175 150.9 173.5C156.6 163.6 153.2 150.8 143.3 145.1C133.4 139.4 120.6 142.8 114.9 152.7L64.9 236.7C61 243 50.2 253.4 37.2 247.9L35.3 247.1V225C35.3 123.2 118.2 40.3 220 40.3C321.8 40.3 404.7 123.2 404.7 225V252.4L400.7 251.1C388.7 247.3 382.6 259.9 382.3 260.5L382.1 260.8L326.7 347.3C321.8 356 312.8 360.7 303.5 360.7Z" fill="black"/>
<path d="M155.2 425.3C150.5 425.3 145.9 424.1 141.8 421.7C129 414.3 124.6 397.8 132 385L263.6 169.2C264.5 167.8 266.4 167.3 267.8 168.2C269.2 169.1 269.7 171 268.8 172.4L137.2 388.1C134.5 392.8 133.7 398.4 135.2 403.8C136.6 409.2 140.1 413.6 144.9 416.4C149.7 419.2 155.3 419.9 160.7 418.5C166.1 417.1 170.5 413.6 173.3 408.8L297.7 206.3C308.3 189.4 324.8 189.1 335.7 194C341.2 196.5 345.1 201.1 347.1 207.3C349.7 215.4 348.6 225.6 344.2 233.2C343.4 234.7 341.5 235.2 340 234.3C338.5 233.5 338 231.6 338.9 230.1C342.5 223.9 343.4 215.7 341.3 209.1C340.3 205.9 338 201.6 333.2 199.5C324.1 195.4 311.4 195.9 302.9 209.4L178.5 411.9C175 418 169.2 422.5 162.2 424.3C159.9 425 157.5 425.3 155.2 425.3Z" fill="black"/>
<path d="M107.4 320.5C102.8 320.5 98.2 319.3 94 316.9C87.8 313.3 83.3 307.5 81.5 300.6C79.6 293.7 80.6 286.4 84.2 280.2L133 204.3C133.9 202.9 135.8 202.5 137.2 203.4C138.6 204.3 139 206.2 138.1 207.6L89.4 283.4C86.7 288.1 86 293.7 87.4 299C88.8 304.4 92.3 308.8 97.1 311.6C107 317.3 119.8 313.9 125.5 304L241.3 115.7C244.8 109.6 250.6 105.1 257.6 103.3C264.5 101.4 271.8 102.4 278 106C284.2 109.6 288.7 115.4 290.5 122.3C292.4 129.2 291.4 136.5 287.8 142.7C287 144.2 285.1 144.7 283.6 143.8C282.1 143 281.6 141.1 282.5 139.6C285.3 134.8 286 129.2 284.6 123.8C283.2 118.4 279.7 114 274.9 111.2C265 105.5 252.2 108.9 246.5 118.8L130.6 307.2C125.7 315.7 116.7 320.5 107.4 320.5Z" fill="black"/>
<path d="M39.5 277.5C42.151 277.5 44.3 275.351 44.3 272.7C44.3 270.049 42.151 267.9 39.5 267.9C36.849 267.9 34.7 270.049 34.7 272.7C34.7 275.351 36.849 277.5 39.5 277.5Z" fill="black"/>
<path d="M398.7 277.5C401.351 277.5 403.5 275.351 403.5 272.7C403.5 270.049 401.351 267.9 398.7 267.9C396.049 267.9 393.9 270.049 393.9 272.7C393.9 275.351 396.049 277.5 398.7 277.5Z" fill="black"/>
</svg>
